<svg class="svg-icon" style="width: 1em; height: 1em;vertical-align: middle;fill: currentColor;overflow: hidden;" viewBox="0 0 1024 1024" version="1.1" xmlns="http://www.w3.org/2000/svg"><path d="M511.2 244.2l32.6-227.8S743.3-14 835.5 181.7l-192.3 136" fill="#FFC5DA" /><path d="M649 325.8l-11.6-16.3 185.4-131.1c-36.9-73.9-94-121.9-169.6-142.9-45.5-12.6-84.9-11.3-100.6-10l-31.5 220.1-19.8-2.8L535 7.6l7.3-1.1c2.1-0.3 52.7-7.7 115.4 9.5 36.9 10.1 70.4 26.8 99.4 49.4 36.3 28.3 65.7 66 87.4 112l3.6 7.6L649 325.8z" fill="#94005E" /><path d="M152 504.1c-1.6 0-3.2-1.1-3.2-3.2s1.6-3.2 3.2-3.2 3.2 1.1 3.2 3.2-1.6 3.2-3.2 3.2z m0-5.4c-1.1 0-2.2 0.7-2.2 2.2 0 2.9 4.4 2.9 4.4 0 0-1.5-1.1-2.2-2.2-2.2z" fill="#999999" /><path d="M171.7 1005c-20.1-11.2-24.4-41.8-9.6-68.5l349.1-692.3 132.1 73.5L234.9 977c-14.8 26.7-43.1 39.2-63.2 28" fill="#FD6A88" /><path d="M187.8 1019.1c-7.4 0-14.6-1.8-21.1-5.4-12.5-7-20.7-19.7-22.9-35.8-2.1-15 1.2-31.4 9.4-46.1l353.7-701.4L657.2 314 243.5 982c-8.2 14.7-20.4 26.1-34.2 32.3-7.2 3.2-14.5 4.8-21.5 4.8zM515.4 258L170.9 941.1l-0.1 0.2c-6.1 11-8.7 23-7.2 33.8 1.4 9.7 5.9 17.2 12.9 21.1 6.9 3.9 15.7 3.8 24.7-0.2 10-4.4 18.8-12.9 25-23.9l0.2-0.4 402.8-650.4L515.4 258z" fill="#94005E" /><path d="M417.5 430l116.1 64.6" fill="#FFC5DA" /><path d="M412.714 438.728l9.728-17.476 116.128 64.643-9.728 17.476z" fill="#94005E" /><path d="M466.5 409.7l7.1 3.5c4.6 2.3 10.2 0.3 12.5-4.3l46.5-95.4c2.3-4.6 0.3-10.2-4.3-12.5l-7.1-3.5c-4.6-2.3-10.2-0.3-12.5 4.3l-46.5 95.4c-2.2 4.7-0.3 10.3 4.3 12.5z" fill="#FFFFFF" /><path d="M477.7 419.2c-2.1 0-4.2-0.5-6.3-1.5l-7.1-3.5c-7.1-3.5-10.1-12.1-6.6-19.2l46.5-95.4c3.5-7.1 12.1-10.1 19.2-6.6l7.1 3.5c7.1 3.5 10.1 12.1 6.6 19.2l-46.5 95.4c-2.5 5.1-7.6 8.1-12.9 8.1z m-9-14l7.1 3.5c2.1 1.1 4.7 0.2 5.8-2l46.6-95.4c1-2.1 0.2-4.7-2-5.8l-7.1-3.5c-2.1-1-4.7-0.2-5.8 2l-46.5 95.4c-1.1 2.2-0.2 4.8 1.9 5.8z" fill="#94005E" /></svg>